<?xml version="1.0" encoding="UTF-8" standalone="no"?>
<!-- Created with Inkscape (http://www.inkscape.org/) -->

<svg
   version="1.1"
   id="svg1"
   width="845.75635"
   height="920.34937"
   viewBox="0 0 845.75635 920.34937"
   xmlns="http://www.w3.org/2000/svg"
   xmlns:svg="http://www.w3.org/2000/svg">
  <defs
     id="defs1" />
  <g
     id="g1"
     transform="translate(-925.41553,-43.98999)">
    <path
       style="fill:#000000"
       d="m 1243.7562,963.66643 c -25.8862,-3.6084 -55.313,-14.9645 -78.0727,-30.12906 -13.1584,-8.7673 -31.8843,-27.0609 -41.0912,-40.14259 -17.4763,-24.83138 -24.1464,-49.9404 -21.4937,-80.91208 1.0907,-12.73539 1.0537,-14.43316 -0.3364,-15.44964 -0.8589,-0.62808 -5.7111,-1.98274 -10.7825,-3.01034 -12.4784,-2.52848 -32.8259,-2.52709 -41.2207,0.003 -17.1468,5.16742 -30.0453,15.95793 -39.3911,32.95332 -6.6956,12.17617 -9.7315,15.34637 -15.52859,16.2157 -6.97785,1.04639 -11.91336,-1.47109 -15.17536,-7.74056 -2.00064,-3.84516 -1.75003,-15.80448 0.53015,-25.29966 9.18051,-38.22962 30.9267,-66.90036 62.9047,-82.9352 18.516,-9.28451 34.2285,-12.53014 60.6602,-12.53014 19.3293,0 28.601,1.14489 59.8804,7.39426 42.2801,8.4472 57.9626,10.2655 74.7206,8.66348 20.4572,-1.95567 35.2055,-6.083 50.899,-14.24414 10.1341,-5.27014 31,-20.05105 31,-21.95977 0,-0.78691 -1.4888,-0.95357 -4.75,-0.53172 -24.3726,3.15272 -43.1291,2.86639 -63.6603,-0.97182 -25.7476,-4.81341 -59.2001,-17.9579 -70.1335,-27.5575 -4.3745,-3.84088 -6.1196,-9.66994 -4.5067,-15.05338 1.8391,-6.13853 7.5715,-8.99612 24.8414,-12.38338 4.3693,-0.85699 1.2113,-2.13216 -7.019,-2.83417 -24.7093,-2.1076 -60.0594,-12.17713 -82.7719,-23.57774 -23.496,-11.79385 -52.8504,-35.01422 -62.4097,-49.36833 -4.9328,-7.40692 -2.725,-16.89196 5.0503,-21.69738 3.2473,-2.00695 4.4621,-2.14516 14.6996,-1.67242 6.6228,0.30582 10.5499,0.15817 9.6598,-0.36321 -16.833,-9.85883 -29.3567,-17.81785 -36.108,-22.94712 -35.892,-27.26893 -61.61726,-67.99741 -70.42506,-111.4976 -4.54919,-22.46769 -2.95577,-31.17203 6.2964,-34.39527 5.24988,-1.82893 11.31137,-0.45814 17.84172,4.03486 2.41724,1.66307 4.39494,2.62407 4.39494,2.13555 0,-0.48851 -3.66097,-4.89604 -8.13545,-9.79449 -10.04656,-10.99871 -25.82245,-31.91671 -33.11847,-43.91355 -24.22548,-39.83394 -37.13953,-88.29696 -35.44082,-133 1.34567,-35.4121 8.97348,-66.10533 23.85771,-96.000005 11.37479,-22.846024 28.03099,-44.852436 36.65006,-48.42257 4.3925,-1.819434 9.6671,-0.240712 13.94617,4.174184 3.1432,3.242938 3.24,3.627684 5.2262,20.776256 2.5421,21.948242 4.2392,31.118265 8.496,45.907665 24.2693,84.31806 99.4628,162.09983 220.0186,227.59188 27.1533,14.7511 82.3394,42.47259 84.5515,42.47259 2.4091,0 2.4409,-1.47965 0.2011,-9.35566 -1.4605,-5.13542 -1.7479,-10.41364 -1.75,-32.14434 0,-29.55762 0.5197,-32.56856 9.0609,-52.19389 2.44,-5.60664 4.4365,-10.58055 4.4365,-11.05314 0,-0.47259 -2.8125,-2.83713 -6.25,-5.25452 -3.4375,-2.4174 -10.9068,-8.91848 -16.5984,-14.44686 -26.4774,-25.71792 -41.5614,-54.69374 -46.7408,-89.78685 -3.3315,-22.57267 -0.2234,-57.79371 6.7487,-76.476474 4.0004,-10.719636 11.5107,-15.237392 20.2606,-12.187593 4.906,1.709997 7.3127,5.099966 11.0317,15.538418 4.5445,12.755439 12.897,29.238749 19.5246,38.530659 7.8285,10.97565 25.3711,28.13906 35.5572,34.78862 9.6715,6.31364 21.9649,12.46959 23.2793,11.65721 0.6027,-0.37246 0.1711,-3.01555 -1.1204,-6.86073 -1.8644,-5.55152 -2.0994,-8.55999 -2.0892,-26.75485 0.011,-19.00615 0.2041,-21.21249 2.6534,-30.27735 3.0204,-11.17797 9.5293,-25.545182 15.7864,-34.845262 5.4576,-8.111848 21.1386,-24.279425 26.7661,-27.596683 7.3999,-4.362078 14.6502,-3.087726 18.8435,3.312056 2.4265,3.703247 2.0722,9.74744 -1.1219,19.14166 -2.5297,7.440263 -2.7512,9.176259 -2.2966,18 0.8378,16.263679 6.8945,29.915959 19.0242,42.882689 7.864,8.40662 10.135,9.92354 35.8385,23.93835 28.4174,15.49454 38.6312,22.40498 51.8814,35.10185 22.2513,21.32203 33.9243,40.92006 41.213,69.19326 2.5508,9.8944 3.0847,14.17288 3.5442,28.39943 0.2976,9.2125 0.8265,16.75 1.1754,16.75 1.1642,0 17.871,-34.36208 21.5473,-44.31797 11.0065,-29.80681 15.9508,-68.9646 13.6081,-107.77226 -1.1615,-19.24138 -2.4755,-27.83997 -7.5914,-49.67781 -5.2414,-22.373576 -4.4744,-28.245095 4.1608,-31.853144 9.4111,-3.932178 16.3839,-0.686569 31.485,14.655095 37.8381,38.440979 59.2875,88.742009 62.456,146.466089 0.5859,10.67297 0.04,20.38814 -2.1367,38 l -0.6178,5 4.1818,-6.5 c 2.3,-3.575 6.0337,-8.4125 8.2971,-10.75 3.8869,-4.01416 4.4292,-4.25 9.7722,-4.25 11.0933,0 15.168,6.86591 17.9419,30.23245 1.4152,11.92134 1.4132,35.45003 0,45.76755 -2.6344,19.18001 -7.427,38.48085 -12.1674,49 l -2.9292,6.5 4.9611,-5.18809 c 8.346,-8.72786 17.0051,-11.4933 24.2525,-7.74549 4.1389,2.1403 5.9521,7.0612 6.5843,17.86988 1.8037,30.83713 -8.9951,73.68041 -24.9676,99.05668 -9.2498,14.69561 -23.6526,30.2931 -37.7436,40.87437 l -9.4985,7.13265 10.4985,0.5291 c 11.7255,0.59093 15.4432,1.97794 19.112,7.13025 3.6728,5.15796 3.1523,11.48546 -1.5005,18.24106 -6.6794,9.6983 -26.6513,27.74794 -41.113,37.156 -20.2201,13.15423 -48.5214,24.11876 -73.5,28.47545 -3.575,0.62355 -7.3359,1.88396 -8.3576,2.80093 -1.0217,0.91696 -4.9148,6.84221 -8.6514,13.16721 -11.0565,18.71581 -18.7017,28.70457 -32.991,43.10417 -14.6061,14.71883 -24.0814,22.3109 -41.3832,33.15816 -6.1143,3.83326 -11.3036,7.14171 -11.532,7.35211 -0.2283,0.2104 2.1125,5.44573 5.2019,11.63405 9.8281,19.68705 13.3842,36.34506 12.4214,58.18614 -0.6971,15.81546 -4.5082,32.07629 -10.5289,44.92413 -8.2297,17.56157 -24.2686,37.38933 -32.1565,39.75259 -10.8075,3.23801 -21.0227,-4.97967 -21.0227,-16.9119 0,-4.07856 0.795,-6.17953 4.8398,-12.78984 2.6619,-4.35029 6.9276,-11.31864 9.4792,-15.48523 6.1361,-10.01959 9.3177,-18.75991 10.7591,-29.55664 1.6164,-12.10829 0.6765,-30.99249 -1.9596,-39.36774 -2.2171,-7.04415 -7.6567,-16.78741 -11.9356,-21.37878 -2.916,-3.12895 -10.0482,-8.62122 -11.1954,-8.62122 -0.3918,0 0.1047,3.42968 1.1034,7.62152 9.2532,38.83843 0.085,81.52954 -23.9655,111.59073 -30.0965,37.61847 -68.5325,54.74832 -122.9148,54.77954 -32.4861,0.0187 -55.1378,-5.04979 -82.7106,-18.50696 -20.0123,-9.76722 -39.7902,-26.19004 -45.3354,-37.64482 -4.6271,-9.55825 -1.9129,-20.50697 6.3888,-25.77175 7.6765,-4.86831 17.1565,-6.60539 54.9466,-10.06826 48.2279,-4.41933 68.7907,-8.96023 93.469,-20.64077 29.3091,-13.87234 50.4207,-32.60636 73.654,-65.35923 20.4062,-28.76729 24.419,-31.70024 45.3292,-33.13108 7.4646,-0.51079 15.3835,-1.7086 19.5478,-2.9568 27.5294,-8.25167 60.763,-38.15914 79.5651,-71.60182 6.4837,-11.53239 12.7235,-27.58594 15.085,-38.8103 2.4794,-11.78492 3.4615,-36.84534 1.9738,-50.36618 -3.8914,-35.36579 -17.2475,-57.69524 -54.0269,-90.32495 -16.3298,-14.48744 -20.4654,-18.85357 -23.6043,-24.92021 -5.1057,-9.86817 -5.3425,-25.54155 -0.5041,-33.37027 2.9936,-4.84374 13.3893,-14.16947 18.9185,-16.97133 8.8929,-4.50636 16.512,-5.9702 30.5929,-5.87776 16.2477,0.10666 24.8599,2.20019 39.75,9.6628 10.4832,5.25394 10.75,5.32855 10.75,3.00583 0,-3.02702 -4.6556,-13.33243 -9.3106,-20.60925 -4.8994,-7.65902 -9.998,-13.13116 -17.6014,-18.89096 l -6.4121,-4.85728 -4.3767,4.56783 c -3.8332,4.00047 -4.8254,4.52957 -7.9886,4.25978 -2.5439,-0.21696 -4.2068,-1.1083 -5.6239,-3.01441 l -2.012,-2.70637 2.6817,-12.29363 c 3.8339,-17.57489 3.326,-37.98585 -1.4056,-56.48599 -4.3127,-16.86243 -17.1205,-37.53207 -32.0745,-51.76271 -10.4141,-9.91042 -19.8057,-16.26861 -41.3763,-28.01217 -8.8,-4.79094 -20.5,-11.69468 -26,-15.34166 -12.7179,-8.43308 -29.4461,-24.96784 -34.946,-34.54179 -3.6488,-6.35181 -3.9996,-6.67951 -4.8175,-4.5 -1.8277,4.87059 1.7516,22.05752 7.3178,35.13776 3.903,9.17183 8.9936,17.60913 15.702,26.02492 7.1805,9.00791 10.217,14.47981 10.2317,18.438 l 0.012,3.25 -6.75,-0.009 c -39.833,-0.0518 -68.7982,-8.19252 -97.226,-27.3255 -10.3948,-6.99612 -32.4782,-28.80033 -38.0457,-37.56463 -2.4631,-3.87746 -4.8158,-7.06143 -5.2283,-7.0755 -2.6316,-0.0898 2.0607,22.30917 8.1826,39.06051 6.0395,16.52575 17.2767,33.30849 30.6891,45.83415 14.9845,13.99391 32.3641,23.28133 58.15,31.07463 11.7292,3.54492 16.6131,7.00694 18.2004,12.90161 1.8624,6.91658 -1.6285,14.13624 -8.3001,17.16534 -5.5558,2.52252 -11.6609,2.38876 -26.672,-0.58435 -14.3572,-2.84358 -13.4604,-3.18266 -17.0919,6.4627 -6.0048,15.94864 -7.9145,31.59093 -6.0045,49.18272 1.4994,13.8104 4.1141,23.07352 9.9858,35.3771 8.2507,17.28853 16.0267,25.44116 49.1019,51.47994 42.6616,33.58586 68.2923,71.28726 78.0783,114.84922 3.9289,17.48965 3.5012,54.29864 -0.726,62.47328 -6.1144,11.82408 -16.6869,16.83464 -24.9237,11.81188 -5.5183,-3.36507 -6.129,-6.23535 -6.7266,-31.61432 -0.4831,-20.52198 -0.8212,-24.06011 -3.1374,-32.83951 -8.5795,-32.51949 -24.4705,-58.91169 -50.6908,-84.18875 -28.5681,-27.5404 -58.9644,-46.04822 -122.1522,-74.3763 -71.2309,-31.93397 -110.2634,-52.39275 -144.7127,-75.85079 -75.5336,-51.43398 -132.0866,-121.59633 -156.97007,-194.74443 l -3.74197,-11 -3.13486,9.73341 c -7.11985,22.10644 -10.71723,48.15538 -9.84196,71.26659 1.47069,38.83315 13.43799,75.62443 35.79585,110.04782 33.20551,51.12501 83.40421,87.44497 151.14351,109.35593 22.4442,7.25982 47.3141,12.76446 86.2495,19.09027 16.4552,2.67346 18.9024,3.47133 23.5634,7.68228 7.4067,6.69146 6.8545,17.00773 -1.2765,23.8495 l -3.2848,2.76404 -14.0011,-0.6205 c -39.9904,-1.77231 -86.5992,-12.22146 -128.0658,-28.71086 -35.0799,-13.9497 -56.2861,-25.7212 -89.7854,-49.83969 -7.0676,-5.08846 -13.0849,-9.0171 -13.3717,-8.73031 -1.0723,1.07238 1.971,17.43238 4.8571,26.10936 10.8726,32.68936 41.4386,67.73861 76.6206,87.85913 42.8983,24.53344 100.3149,32.20044 165.1778,22.05666 8.4885,-1.3275 16.8594,-2.41363 18.6021,-2.41363 3.9162,0 9.1517,3.42143 12.2781,8.02379 1.9842,2.92106 2.302,4.44121 1.9896,9.51875 -0.4399,7.14937 -2.9823,11.36536 -8.4055,13.93886 -12.3808,5.87509 -64.8897,11.31796 -98.3979,10.19954 -26.3387,-0.87911 -72.5381,-6.0675 -81.5,-9.1528 -2.7984,-0.96337 2.3095,3.35628 10.5,8.87977 17.2342,11.62242 40.372,22.39365 60.2114,28.03001 23.2452,6.60393 54.7696,10.92508 80.2886,11.00541 26.4104,0.0831 38.9444,-2.77167 66.1176,-15.05936 17.7501,-8.02654 22.6438,-8.23382 29.0154,-1.22899 5.235,5.75526 6.5785,12.00971 3.9375,18.33045 -4.7562,11.3831 -56.4994,36.07888 -92.3095,44.05708 -11.6826,2.60278 -10.7481,3.79159 4.3831,5.57612 5.7162,0.67415 18.2863,0.9221 31.6673,0.62466 18.147,-0.40338 23.5813,-0.868 29.835,-2.55085 23.8555,-6.41948 41.7027,-18.8617 50.171,-34.977 2.0336,-3.86987 5.5183,-12.31684 7.7438,-18.77106 5.5244,-16.02146 7.1929,-19.02325 11.9124,-21.43092 4.8749,-2.48702 8.3266,-2.51438 13.6253,-0.10803 8.1169,3.68627 11.1006,11.88498 8.8746,24.3858 -2.4975,14.02493 -11.4474,35.14663 -21.004,49.56942 -3.1436,4.74419 -5.8026,10.921 -9.3153,21.63935 -12.1831,37.17396 -24.6227,58.29111 -48.0335,81.54065 -23.9683,23.80318 -50.2156,39.37025 -83.1207,49.29838 -19.0347,5.74313 -34.5944,7.97318 -56,8.02608 -19.2404,0.0476 -29.6897,-0.9896 -48.8267,-4.8463 -9.5424,-1.92309 -11.4124,-2.05938 -11.8707,-0.86518 -0.2991,0.77962 -0.3218,8.26399 -0.05,16.63193 0.5492,16.92624 1.484,20.63593 8.6908,34.48817 16.917,32.51678 59.0895,60.70064 105.0569,70.20957 19.004,3.93123 23.314,5.91113 26.595,12.21704 3.163,6.07929 0.4889,14.64797 -5.7081,18.29036 -2.7277,1.60321 -5.4308,2.02646 -13.8869,2.17443 -5.775,0.10105 -13.2013,-0.19282 -16.5028,-0.65304 z m 93.4368,-79.08996 c 25.7704,-2.41391 47.1783,-12.87639 66.9855,-32.73714 8.8876,-8.91163 11.4211,-12.1787 15.2646,-19.68499 6.703,-13.09049 9.9443,-24.05804 10.5653,-35.75 0.2849,-5.3625 0.2544,-9.75 -0.068,-9.75 -0.3221,0 -1.9239,1.94508 -3.5595,4.3224 -5.9562,8.65706 -25.4111,26.55277 -40.1728,36.95331 -13.2943,9.36663 -35.9686,19.31401 -56.3679,24.72898 -17.8225,4.73098 -28.2332,5.93457 -60.074,6.94515 -16.3918,0.52025 -30.2188,1.36146 -30.7267,1.86937 -1.1202,1.12017 12.5709,9.20214 22.5822,13.33046 8.7526,3.6093 22.826,7.39696 32.637,8.78383 4.125,0.58311 8.625,1.22533 10,1.42716 5.441,0.79868 22.0931,0.57695 32.9341,-0.43853 z M 1222.259,778.55004 c 14.1399,-1.87975 39.3398,-9.82978 43,-13.56559 1.3416,-1.36939 1.1833,-1.46951 -1.5,-0.94854 -8.9526,1.73815 -22.7953,2.79734 -37,2.8311 -19.4282,0.0462 -32.1812,-1.74126 -73.5,-10.30163 -28.6225,-5.92995 -30.0698,-6.12744 -48.6543,-6.63859 -18.8094,-0.51733 -30.3457,0.11 -30.3457,1.65015 0,0.42829 5.7375,2.24832 12.75,4.04453 7.0125,1.79621 21.75,5.94853 32.75,9.22738 49.6923,14.81218 71.8566,17.77489 102.5,13.70119 z m 412.4751,-186.01098 c 4.9363,-1.6486 11.6863,-4.29941 15,-5.8907 7.0394,-3.38046 24.7024,-15.0266 25.2411,-16.64284 0.227,-0.681 -1.8688,-1.37348 -5.4231,-1.79183 -25.0975,-2.95405 -31.6111,-4.61723 -36.6663,-9.3624 -5.9768,-5.61026 -6.966,-11.77868 -3.1896,-19.8896 2.917,-6.26523 5.5153,-7.78162 21.0858,-12.30605 19.4071,-5.63927 31.9186,-12.59136 44.8706,-24.93269 18.3867,-17.51979 29.5281,-37.95156 33.5733,-61.56861 1.4022,-8.18701 1.0506,-20.66976 -0.5976,-21.21387 -0.6219,-0.20529 -5.3161,4.93384 -10.4315,11.4203 -18.1189,22.97532 -39.9216,43.32824 -55.7372,52.03096 -8.9356,4.91692 -12.8767,5.32518 -19.188,1.98768 -5.5654,-2.94304 -8.0126,-7.46685 -8.0126,-14.81159 0,-7.58224 1.799,-10.00957 17.3459,-23.40353 24.7321,-21.30731 40.6761,-43.20777 51.6354,-70.92607 6.1398,-15.52865 8.1186,-26.17815 8.6559,-46.58388 0.5518,-20.95558 -0.024,-23.52219 -4.1484,-18.5 -1.3551,1.65 -4.3746,7.275 -6.71,12.5 -7.8818,17.63393 -22.7498,46.46629 -26.5311,51.44982 -4.9143,6.47659 -13.0753,10.94145 -18.6612,10.20947 -6.5458,-0.85777 -12.2931,-6.61001 -14.7296,-14.74241 -1.0954,-3.65625 -0.8507,-4.31743 8.4641,-22.86989 10.9217,-21.75294 16.2572,-36.86875 20.352,-57.65828 2.5598,-12.99637 2.7385,-15.62344 2.7813,-40.88871 0.032,-18.64144 -0.3763,-29.32183 -1.3172,-34.5 -1.4389,-7.91835 -7.9484,-28.85302 -10.4652,-33.65653 l -1.4881,-2.84025 -0.545,3.49839 c -0.2998,1.92411 -0.7679,12.04839 -1.0403,22.49839 -0.5333,20.45721 -1.8691,28.73863 -9.0084,55.85032 -6.865,26.06974 -16.1979,47.85791 -28.2634,65.98295 l -6.5459,9.83327 7.0981,14.16673 c 10.1128,20.18341 11.6211,26.56476 11.6211,49.16673 0,20.36084 -1.4914,28.41184 -6.391,34.5 -5.048,6.27261 -6.4433,6.15118 -17.6781,-1.53855 -19.2381,-13.16766 -34.7163,-18.71806 -52.4309,-18.80136 -10.3983,-0.0489 -18,1.73022 -18,4.21272 0,0.53617 4.6125,4.53703 10.25,8.8908 25.8791,19.98614 46.7632,48.95208 58.3469,80.92642 10.2263,28.22775 13.1619,61.35139 7.7728,87.70352 l -0.5917,2.89355 5.361,-0.70247 c 2.9485,-0.38635 9.3998,-2.05132 14.3361,-3.69991 z M 1493.759,344.08174 c -15.6399,-8.13411 -15.7961,-31.60282 -0.2634,-39.55609 5.298,-2.71277 13.907,-2.99398 18.4072,-0.60127 10.5349,5.60126 16.0197,18.41951 11.999,28.0423 -1.8132,4.33962 -7.1808,9.57257 -12.1207,11.81658 -4.9808,2.26265 -13.9596,2.41136 -18.0221,0.29848 z"
       id="path1" />
  </g>
</svg>
